PathFileType	4	(X/Y/Z)	C:\Users\Biomechanik\SynologyDrive\AlexP\Athlete_03\Athlete_3_25_03_31\Squat_bw_02\marker_experimental.trc
DataRate	CameraRate	NumFrames	NumMarkers	Units	OrigDataRate	OrigDataStartFrame	OrigNumFrames
200.000000	200.000000	4	55	mm	200.000000	226	604
Frame#	Time	BL			BR			GLAB			RFHD			LFHD			C7			T6			SPINMOL			SPINM2			SPINM3			T12			BELTOL			BELT2			BELT3			SACROL			SACR2			SACR3			LTHOL			LTH2			LTH3			LSHAOL			LSHA2			LSHA3			LHEE			LTOE			LM5			RTHOL			RTH2			RTH3			RSHAOL			RSHA2			RSHA3			RHEE			RTOE			RM5			STRN			XIPH			LACR			LUAOL			LUA2			LUA3			LLAOL			LLA2			LLA3			LWRR			LWRU			RACR			RUAOL			RUA2			RUA3			RLAOL			RLA2			RLA3			RWRR			RWRU			
		X1	Y1	Z1	X2	Y2	Z2	X3	Y3	Z3	X4	Y4	Z4	X5	Y5	Z5	X6	Y6	Z6	X7	Y7	Z7	X8	Y8	Z8	X9	Y9	Z9	X10	Y10	Z10	X11	Y11	Z11	X12	Y12	Z12	X13	Y13	Z13	X14	Y14	Z14	X15	Y15	Z15	X16	Y16	Z16	X17	Y17	Z17	X18	Y18	Z18	X19	Y19	Z19	X20	Y20	Z20	X21	Y21	Z21	X22	Y22	Z22	X23	Y23	Z23	X24	Y24	Z24	X25	Y25	Z25	X26	Y26	Z26	X27	Y27	Z27	X28	Y28	Z28	X29	Y29	Z29	X30	Y30	Z30	X31	Y31	Z31	X32	Y32	Z32	X33	Y33	Z33	X34	Y34	Z34	X35	Y35	Z35	X36	Y36	Z36	X37	Y37	Z37	X38	Y38	Z38	X39	Y39	Z39	X40	Y40	Z40	X41	Y41	Z41	X42	Y42	Z42	X43	Y43	Z43	X44	Y44	Z44	X45	Y45	Z45	X46	Y46	Z46	X47	Y47	Z47	X48	Y48	Z48	X49	Y49	Z49	X50	Y50	Z50	X51	Y51	Z51	X52	Y52	Z52	X53	Y53	Z53	X54	Y54	Z54	X55	Y55	Z55	

227	1.13	960.7112426757812	36.20452117919934	-1933.55517578125	1063.179565429688	32.88566207885741	86.64066314697266	581.9295043945312	1086.014526367188	-1201.724609375	537.3289184570312	1120.301879882812	-1138.821533203125	543.0230102539062	1115.6884765625	-1274.518798828125	311.8317260742188	1014.046936035156	-1209.717407226562	176.9015655517578	910.4826660156251	-1216.11328125	152.7472534179688	884.4292602539064	-1237.045166015625	144.540771484375	879.7048339843751	-1187.714477539062	114.1209945678711	832.4953002929689	-1222.789306640625	83.17478942871094	778.1870117187501	-1218.958374023438	50.03734970092773	767.4992675781251	-1233.328002929688	49.48769760131836	765.1707153320314	-1182.8310546875	13.22975063323975	716.7498779296876	-1211.57080078125	-39.81401824951172	612.9821166992189	-1232.785278320312	-37.29895401000977	609.9219360351564	-1180.95068359375	-54.02964782714844	552.3170776367189	-1209.582275390625	143.7400054931641	453.1072692871095	-1509.123291015625	179.5745239257812	383.7998962402345	-1525.05517578125	191.9333801269531	430.5888977050782	-1539.751220703125	232.9825439453125	300.1702575683595	-1622.566040039062	174.6028442382812	259.8504638671876	-1586.10791015625	216.1827850341797	242.2647399902345	-1608.7265625	112.4570007324219	72.7896270751954	-1475.30517578125	317.6954040527344	49.52236175537119	-1545.302978515625	241.1091003417969	26.025884628296	-1627.07666015625	128.3152618408203	438.2528381347657	-913.1793823242188	180.5371398925781	477.9134216308594	-867.239990234375	179.5146789550781	429.4366760253907	-878.3641357421875	217.1500396728516	310.8946533203126	-804.6210327148438	217.1316528320312	231.9726257324219	-804.2344360351562	186.1495971679688	262.5071411132813	-828.7959594726562	96.24077606201172	67.45606994628912	-966.267578125	287.3727111816406	46.45093536376959	-877.9733276367188	201.2422027587891	38.92896652221685	-801.5642700195312	422.230224609375	848.1502685546876	-1209.634643554688	364.7807006835938	712.4823608398439	-1206.256713867188	372.6802062988281	965.9624633789064	-1370.680908203125	278.3406982421875	888.3286743164064	-1491.5068359375	226.0641326904297	853.1250610351564	-1512.090454101562	269.9574584960938	843.1351318359376	-1538.220092773438	287.6405029296875	778.4950561523439	-1625.335571289062	360.1056213378906	746.2425537109376	-1623.374145507812	346.7734375	795.3007812500001	-1621.008056640625	438.0972290039062	844.3210449218751	-1609.332885742188	427.999267578125	845.5126953125001	-1531.879028320312	359.1719360351562	969.1016235351564	-1064.376098632812	265.3584899902344	898.5316772460939	-946.1657104492188	247.2700805664062	861.021484375	-895.6515502929688	213.3350219726562	859.6231079101564	-934.919921875	284.8001098632812	810.8959350585938	-791.39892578125	312.9874267578125	884.6021118164062	-803.1259155273438	338.9885559082031	842.1346435546875	-795.2318115234375	403.2152099609375	909.3531494140625	-813.4891967773438	404.5575561523438	901.80810546875	-891.79443359375	
228	1.135	960.7112426757812	36.20429992675793	-1933.55419921875	1063.179809570312	32.88581848144531	86.64038848876953	582.1983032226562	1083.50390625	-1201.76416015625	537.6229858398438	1117.826171875	-1138.852416992188	543.3138427734375	1113.19677734375	-1274.565063476562	312.0120239257812	1011.684204101563	-1209.710083007812	177.0705413818359	908.2261352539064	-1216.078002929688	152.914794921875	882.2152099609376	-1237.010009765625	144.7079620361328	877.4827880859376	-1187.68701171875	114.2288360595703	830.3155517578126	-1222.76953125	83.30418395996094	776.1773681640626	-1218.934692382812	50.17473602294922	765.5332031250001	-1233.307495117188	49.63137054443359	763.1923828125001	-1182.809936523438	13.3335018157959	714.8015747070314	-1211.55810546875	-39.80999755859375	610.8160400390626	-1232.765869140625	-37.24442291259766	607.7667846679689	-1180.902709960938	-53.97747802734375	550.1541137695314	-1209.539672851562	143.9384307861328	451.8216247558595	-1509.127685546875	180.021728515625	382.7108154296876	-1525.31298828125	192.1996612548828	429.5913696289064	-1539.858764648438	233.2532958984375	300.0193176269532	-1622.692626953125	174.8433837890625	259.7742614746095	-1586.213500976562	216.3997955322266	242.1385650634766	-1608.818237304688	112.5072937011719	72.81481170654305	-1475.263549804688	317.7291259765625	49.50801849365244	-1545.294311523438	241.1119842529297	26.03465461730967	-1627.0673828125	128.4891510009766	436.9518432617188	-912.9935913085938	180.5656890869141	476.9406738281251	-867.1598510742188	179.7050170898438	428.4244995117188	-878.12744140625	217.375244140625	310.7005615234376	-804.3735961914062	217.2895355224609	231.7781066894532	-804.055908203125	186.3413543701172	262.3612976074219	-828.6031494140625	96.28280639648438	67.4912948608399	-966.2777709960938	287.386962890625	46.44210815429693	-877.9727172851562	201.2375335693359	38.92088699340825	-801.5537719726562	422.4123229980469	845.7693481445314	-1209.612426757812	364.9853210449219	710.0578002929689	-1206.201171875	372.8454895019531	963.5976562500001	-1370.65771484375	278.5535583496094	885.9268188476564	-1491.49658203125	226.3029632568359	850.6857910156251	-1512.073364257812	270.2064514160156	840.7343750000001	-1538.220458984375	287.9397888183594	776.1391601562501	-1625.345581054688	360.4320068359375	743.9478149414064	-1623.381225585938	347.0586853027344	792.9924316406251	-1621.00537109375	438.3387451171875	842.0872802734376	-1609.30712890625	428.2313842773438	843.2556152343751	-1531.855224609375	359.3489990234375	966.7645874023439	-1064.376098632812	265.5168762207031	896.2501220703126	-946.1502075195312	247.4178924560547	858.7828979492188	-895.6156005859375	213.4957733154297	857.3546142578126	-934.8897705078125	284.9261169433594	808.7493896484375	-791.3218994140625	313.105712890625	882.44873046875	-803.10205078125	339.1107788085938	839.9908447265625	-795.1657104492188	403.3428649902344	907.200439453125	-813.4657592773438	404.6559448242188	899.6392211914062	-891.7532958984375	
229	1.14	960.711181640625	36.20417785644543	-1933.553100585938	1063.180053710938	32.88600540161132	86.64010620117188	582.4552001953125	1081.016967773438	-1201.80419921875	537.9022827148438	1115.3720703125	-1138.885009765625	543.588623046875	1110.725708007812	-1274.6083984375	312.1851196289062	1009.335327148438	-1209.703857421875	177.2354125976562	905.9819946289064	-1216.044799804688	153.0785827636719	880.0137939453126	-1236.977783203125	144.8722839355469	875.2740478515626	-1187.661743164062	114.3340530395508	828.1484985351564	-1222.751831054688	83.43640899658203	774.1853027343751	-1218.913818359375	50.30704498291016	763.5839233398439	-1233.290893554688	49.76994323730469	761.2301025390626	-1182.791625976562	13.4321928024292	712.8712768554689	-1211.548828125	-39.81195831298828	608.6448364257814	-1232.751953125	-37.21148681640625	605.6117553710939	-1180.872680664062	-53.92546463012695	547.9850463867189	-1209.499145507812	144.1326446533203	450.5308837890626	-1509.130249023438	180.4706726074219	381.6209411621095	-1525.563354492188	192.4633331298828	428.5920410156251	-1539.962158203125	233.5195617675781	299.8672485351564	-1622.82080078125	175.076904296875	259.6952209472657	-1586.323852539062	216.6143493652344	242.0106811523438	-1608.910888671875	112.5570602416992	72.83974456787118	-1475.222534179688	317.7624206542969	49.49414825439462	-1545.28564453125	241.1149139404297	26.04277229309092	-1627.05859375	128.6690979003906	435.6536254882813	-912.8135375976562	180.5965270996094	475.9678649902344	-867.083984375	179.8985595703125	427.4138488769532	-877.89599609375	217.6009216308594	310.5031433105469	-804.1238403320312	217.4511566162109	231.5802917480469	-803.87890625	186.5338592529297	262.2123718261719	-828.407958984375	96.32469940185547	67.52642822265631	-966.2870483398438	287.4008483886719	46.43356323242193	-877.9720458984375	201.2328948974609	38.9124259948731	-801.5435180664062	422.5896301269531	843.4059448242189	-1209.590454101562	365.1914978027344	707.6540527343751	-1206.143432617188	373.0017395019531	961.2473144531251	-1370.636474609375	278.7543640136719	883.5399780273439	-1491.486206054688	226.5304565429688	848.2608032226564	-1512.054809570312	270.4425354003906	838.3493041992189	-1538.221435546875	288.2250671386719	773.8018188476564	-1625.358032226562	360.7449645996094	741.6736450195314	-1623.394287109375	347.3295593261719	790.7044067382814	-1621.0068359375	438.5651550292969	839.8750000000001	-1609.286743164062	428.450439453125	841.0208740234376	-1531.835571289062	359.5224304199219	964.4439086914064	-1064.377807617188	265.6720886230469	893.9866333007814	-946.13427734375	247.5637817382812	856.5628662109375	-895.5787963867188	213.655029296875	855.1047363281251	-934.8596801757812	285.0501098632812	806.6242065429688	-791.2435913085938	313.2203674316406	880.3171997070312	-803.078369140625	339.2300415039062	837.8692626953125	-795.0985717773438	403.4656677246094	905.0714721679688	-813.4424438476562	404.7442016601562	897.4995727539062	-891.712158203125	
230	1.145	960.7110595703125	36.20422363281262	-1933.551879882812	1063.18017578125	32.88626480102538	86.63980865478516	582.7010498046875	1078.553100585938	-1201.84423828125	538.16748046875	1112.939208984375	-1138.919677734375	543.8479614257812	1108.274536132812	-1274.648315429688	312.3518371582031	1007.000183105469	-1209.69921875	177.3965148925781	903.7506713867189	-1216.013793945312	153.2388610839844	877.8251953125001	-1236.94873046875	145.0342102050781	873.0791625976564	-1187.638671875	114.4366607666016	825.9943237304689	-1222.736572265625	83.57059478759766	772.2103271484376	-1218.89501953125	50.43364334106445	761.6513061523439	-1233.277221679688	49.90305709838867	759.2838134765626	-1182.775268554688	13.52642440795898	710.9586791992189	-1211.54150390625	-39.82032775878906	606.4692993164064	-1232.742553710938	-37.20180511474609	603.4571533203126	-1180.860717773438	-53.87408065795898	545.8103027343751	-1209.460205078125	144.3224182128906	449.2374572753907	-1509.131713867188	180.9202880859375	380.5316772460939	-1525.806640625	192.7240447998047	427.5921630859376	-1540.061645507812	233.7811431884766	299.715057373047	-1622.949340820312	175.3037414550781	259.6143493652345	-1586.437744140625	216.8261413574219	241.8820953369141	-1609.00341796875	112.6063995361328	72.86451721191415	-1475.181762695312	317.7952880859375	49.48064804077158	-1545.276733398438	241.1177978515625	26.05038452148447	-1627.050415039062	128.8551483154297	434.3577270507813	-912.6404418945312	180.6291351318359	474.9947509765626	-867.0134887695312	180.0951843261719	426.4044494628907	-877.6708374023438	217.8274688720703	310.3030395507813	-803.8728637695312	217.6167907714844	231.3797607421876	-803.7042846679688	186.7274017333984	262.0608520507813	-828.2112426757812	96.36635589599609	67.56141662597662	-966.2955322265625	287.4143371582031	46.42572784423834	-877.9716186523438	201.2283630371094	38.90389633178716	-801.53369140625	422.7621459960938	841.0595092773439	-1209.568603515625	365.3998413085938	705.2690429687501	-1206.083618164062	373.1500549316406	958.9106445312501	-1370.6171875	278.9440612792969	881.1680908203126	-1491.475952148438	226.7474670410156	845.8502197265626	-1512.035766601562	270.6663208007812	835.9797363281251	-1538.2236328125	288.4972229003906	771.4828491210939	-1625.373291015625	361.0450744628906	739.4193725585939	-1623.413330078125	347.5869140625	788.4361572265626	-1621.012573242188	438.7774353027344	837.6832885742189	-1609.27197265625	428.6571350097656	838.8072509765626	-1531.820434570312	359.6927490234375	962.1394042968751	-1064.381591796875	265.8250122070312	891.7413330078126	-946.1181640625	247.7082366943359	854.361328125	-895.5411376953125	213.8131713867188	852.8736572265626	-934.8297119140625	285.1727905273438	804.5201416015625	-791.1644287109375	313.3320617675781	878.2072143554688	-803.05517578125	339.3471374511719	835.7693481445312	-795.031005859375	403.5846862792969	902.965576171875	-813.419921875	404.8236389160156	895.387939453125	-891.6718139648438	
